<svg width="30" height="37" viewBox="0 0 30 37" fill="none" xmlns="http://www.w3.org/2000/svg">
<path d="M15 23.0929C18.5571 23.0929 21.4071 20.5142 21.4071 17.3197L21.4286 5.77323C21.4286 2.57871 18.5571 0 15 0C11.4429 0 8.57143 2.57871 8.57143 5.77323V17.3197C8.57143 20.5142 11.4429 23.0929 15 23.0929ZM26.3571 17.3197C26.3571 23.0929 20.9143 27.1342 15 27.1342C9.08571 27.1342 3.64286 23.0929 3.64286 17.3197H0C0 23.9012 5.82857 29.3088 12.8571 30.2517V36.5638H17.1429V30.2517C24.1714 29.328 30 23.9012 30 17.3197H26.3571Z" fill="url(#paint0_linear_7_1047)"/>
<defs>
<linearGradient id="paint0_linear_7_1047" x1="15" y1="0" x2="15" y2="36.5638" gradientUnits="userSpaceOnUse">
<stop stop-color="#EFCF28"/>
<stop offset="1" stop-color="#257EBF"/>
</linearGradient>
</defs>
</svg>
