<svg width="40" height="40" viewBox="0 0 40 40" fill="none" xmlns="http://www.w3.org/2000/svg">
<path d="M33.7501 20.95V19.0375L36.1501 16.9375C36.5925 16.5475 36.8828 16.0137 36.9697 15.4305C37.0566 14.8472 36.9346 14.2519 36.6251 13.75L33.6751 8.74996C33.4559 8.37029 33.1407 8.05493 32.7611 7.83554C32.3816 7.61614 31.951 7.50041 31.5126 7.49996C31.2409 7.49788 30.9707 7.5401 30.7126 7.62496L27.6751 8.64996C27.1506 8.30147 26.6036 7.98828 26.0376 7.71246L25.4001 4.56246C25.2858 3.98697 24.9727 3.47001 24.5156 3.10209C24.0586 2.73416 23.4867 2.53872 22.9001 2.54996H17.0501C16.4634 2.53872 15.8915 2.73416 15.4345 3.10209C14.9775 3.47001 14.6644 3.98697 14.5501 4.56246L13.9126 7.71246C13.3425 7.98821 12.7913 8.30139 12.2626 8.64996L9.28757 7.57496C9.02669 7.50699 8.75654 7.48166 8.48757 7.49996C8.04916 7.50041 7.61858 7.61614 7.23902 7.83554C6.85947 8.05493 6.54427 8.37029 6.32507 8.74996L3.37507 13.75C3.08331 14.2512 2.97489 14.8383 3.06838 15.4107C3.16188 15.983 3.45148 16.5051 3.88757 16.8875L6.25007 19.05V20.9625L3.88757 23.0625C3.43916 23.4475 3.14164 23.9789 3.04782 24.5624C2.954 25.1459 3.06994 25.7438 3.37507 26.25L6.32507 31.25C6.54427 31.6296 6.85947 31.945 7.23902 32.1644C7.61858 32.3838 8.04916 32.4995 8.48757 32.5C8.75926 32.502 9.02947 32.4598 9.28757 32.375L12.3251 31.35C12.8495 31.6985 13.3965 32.0116 13.9626 32.2875L14.6001 35.4375C14.7144 36.013 15.0275 36.5299 15.4845 36.8978C15.9415 37.2658 16.5134 37.4612 17.1001 37.45H23.0001C23.5867 37.4612 24.1586 37.2658 24.6156 36.8978C25.0727 36.5299 25.3858 36.013 25.5001 35.4375L26.1376 32.2875C26.7077 32.0117 27.2589 31.6985 27.7876 31.35L30.8126 32.375C31.0707 32.4598 31.3409 32.502 31.6126 32.5C32.051 32.4995 32.4816 32.3838 32.8611 32.1644C33.2407 31.945 33.5559 31.6296 33.7751 31.25L36.6251 26.25C36.9168 25.7487 37.0253 25.1616 36.9318 24.5893C36.8383 24.0169 36.5487 23.4948 36.1126 23.1125L33.7501 20.95ZM31.5126 30L27.2251 28.55C26.2214 29.4001 25.0743 30.0646 23.8376 30.5125L22.9501 35H17.0501L16.1626 30.5625C14.9356 30.1019 13.7947 29.4385 12.7876 28.6L8.48757 30L5.53757 25L8.93757 22C8.70644 20.706 8.70644 19.3814 8.93757 18.0875L5.53757 15L8.48757 9.99996L12.7751 11.45C13.7787 10.5998 14.9258 9.93528 16.1626 9.48746L17.0501 4.99996H22.9501L23.8376 9.43746C25.0645 9.89799 26.2054 10.5614 27.2126 11.4L31.5126 9.99996L34.4626 15L31.0626 18C31.2937 19.2939 31.2937 20.6185 31.0626 21.9125L34.4626 25L31.5126 30Z" fill="white"/>
<path d="M20 27.5C18.5166 27.5 17.0666 27.0601 15.8332 26.236C14.5999 25.4119 13.6386 24.2406 13.0709 22.8701C12.5032 21.4997 12.3547 19.9917 12.6441 18.5368C12.9335 17.082 13.6478 15.7456 14.6967 14.6967C15.7456 13.6478 17.082 12.9335 18.5368 12.6441C19.9917 12.3547 21.4997 12.5032 22.8701 13.0709C24.2406 13.6386 25.4119 14.5999 26.236 15.8332C27.0601 17.0666 27.5 18.5166 27.5 20C27.51 20.9877 27.3229 21.9675 26.9495 22.882C26.5762 23.7964 26.0241 24.6272 25.3257 25.3257C24.6272 26.0241 23.7964 26.5762 22.882 26.9495C21.9675 27.3229 20.9877 27.51 20 27.5ZM20 15C19.3392 14.9846 18.6821 15.1034 18.0685 15.3492C17.4549 15.5951 16.8976 15.9628 16.4302 16.4302C15.9628 16.8976 15.5951 17.4549 15.3492 18.0685C15.1034 18.6821 14.9846 19.3392 15 20C14.9846 20.6608 15.1034 21.3179 15.3492 21.9315C15.5951 22.5451 15.9628 23.1024 16.4302 23.5698C16.8976 24.0372 17.4549 24.4049 18.0685 24.6508C18.6821 24.8966 19.3392 25.0154 20 25C20.6608 25.0154 21.3179 24.8966 21.9315 24.6508C22.5451 24.4049 23.1024 24.0372 23.5698 23.5698C24.0372 23.1024 24.4049 22.5451 24.6508 21.9315C24.8966 21.3179 25.0154 20.6608 25 20C25.0154 19.3392 24.8966 18.6821 24.6508 18.0685C24.4049 17.4549 24.0372 16.8976 23.5698 16.4302C23.1024 15.9628 22.5451 15.5951 21.9315 15.3492C21.3179 15.1034 20.6608 14.9846 20 15Z" fill="white"/>
</svg>
