<svg width="35" height="37" viewBox="0 0 35 37" fill="none" xmlns="http://www.w3.org/2000/svg">
<path d="M19.21 0V3.69849C26.9115 4.6872 32.3675 11.9926 31.4202 20.0304C30.6132 26.695 25.5958 31.9864 19.21 32.7737V36.4356C28.8588 35.4286 35.8762 26.4936 34.9113 16.4235C34.1219 7.72655 27.508 0.86054 19.21 0ZM15.7013 0.054928C12.2804 0.402806 9.01729 1.77601 6.3507 4.08299L8.8594 6.79277C10.8243 5.14493 13.1926 4.08299 15.7013 3.7168V0.054928ZM3.87709 6.66461C1.68356 9.44277 0.333678 12.8405 0 16.4235H3.50867C3.842 13.8236 4.82443 11.3518 6.38579 9.28284L3.87709 6.66461ZM0.0175434 20.0854C0.368411 23.674 1.71925 27.0612 3.89463 29.8442L6.38579 27.226C4.83658 25.1563 3.84893 22.6901 3.52622 20.0854H0.0175434ZM8.8594 29.9175L6.3507 32.4259C9.00813 34.7378 12.2615 36.1775 15.7013 36.5638V32.9019C13.2056 32.5651 10.8425 31.5343 8.8594 29.9175ZM21.9994 10.9307L17.4557 15.6728L12.9119 10.9307L10.4383 13.5123L14.982 18.2544L10.4383 22.9966L12.9119 25.5782L17.4557 20.836L21.9994 25.5782L24.473 22.9966L19.9293 18.2544L24.473 13.5123L21.9994 10.9307Z" fill="black"/>
</svg>
