<svg width="1440" height="333" viewBox="0 0 1440 333" fill="none" xmlns="http://www.w3.org/2000/svg">
<g opacity="0.3">
<g opacity="0.3">
<circle cx="387" cy="5" r="5" fill="#D9D9D9"/>
<circle cx="399" cy="20" r="5" fill="#D9D9D9"/>
<circle cx="411" cy="35" r="5" fill="#D9D9D9"/>
<circle cx="411" cy="54" r="5" fill="#D9D9D9"/>
<circle cx="411" cy="73" r="5" fill="#D9D9D9"/>
<circle cx="423" cy="20" r="5" fill="#D9D9D9"/>
<circle cx="435" cy="5" r="5" fill="#D9D9D9"/>
<circle cx="499" cy="5" r="5" fill="#D9D9D9"/>
<circle cx="480" cy="5" r="5" fill="#D9D9D9"/>
<circle cx="461" cy="5" r="5" fill="#D9D9D9"/>
<circle cx="461" cy="24" r="5" fill="#D9D9D9"/>
<circle cx="461" cy="43" r="5" fill="#D9D9D9"/>
<circle cx="461" cy="62" r="5" fill="#D9D9D9"/>
<circle cx="499" cy="81" r="5" fill="#D9D9D9"/>
<circle cx="480" cy="62" r="5" fill="#D9D9D9"/>
<circle cx="480" cy="43" r="5" fill="#D9D9D9"/>
<circle cx="499" cy="62" r="5" fill="#D9D9D9"/>
<circle cx="499" cy="43" r="5" fill="#D9D9D9"/>
<circle cx="573" cy="5" r="5" fill="#D9D9D9"/>
<circle cx="554" cy="5" r="5" fill="#D9D9D9"/>
<circle cx="535" cy="5" r="5" fill="#D9D9D9"/>
<circle cx="535" cy="24" r="5" fill="#D9D9D9"/>
<circle cx="535" cy="43" r="5" fill="#D9D9D9"/>
<circle cx="535" cy="62" r="5" fill="#D9D9D9"/>
<circle cx="573" cy="81" r="5" fill="#D9D9D9"/>
<circle cx="554" cy="62" r="5" fill="#D9D9D9"/>
<circle cx="554" cy="43" r="5" fill="#D9D9D9"/>
<circle cx="573" cy="62" r="5" fill="#D9D9D9"/>
<circle cx="573" cy="43" r="5" fill="#D9D9D9"/>
</g>
<g opacity="0.3">
<circle cx="631" cy="5" r="5" fill="#D9D9D9"/>
<circle cx="643" cy="20" r="5" fill="#D9D9D9"/>
<circle cx="655" cy="35" r="5" fill="#D9D9D9"/>
<circle cx="655" cy="54" r="5" fill="#D9D9D9"/>
<circle cx="655" cy="73" r="5" fill="#D9D9D9"/>
<circle cx="667" cy="20" r="5" fill="#D9D9D9"/>
<circle cx="679" cy="5" r="5" fill="#D9D9D9"/>
<circle cx="743" cy="5" r="5" fill="#D9D9D9"/>
<circle cx="724" cy="5" r="5" fill="#D9D9D9"/>
<circle cx="705" cy="5" r="5" fill="#D9D9D9"/>
<circle cx="705" cy="24" r="5" fill="#D9D9D9"/>
<circle cx="705" cy="43" r="5" fill="#D9D9D9"/>
<circle cx="705" cy="62" r="5" fill="#D9D9D9"/>
<circle cx="743" cy="81" r="5" fill="#D9D9D9"/>
<circle cx="724" cy="62" r="5" fill="#D9D9D9"/>
<circle cx="724" cy="43" r="5" fill="#D9D9D9"/>
<circle cx="743" cy="62" r="5" fill="#D9D9D9"/>
<circle cx="743" cy="43" r="5" fill="#D9D9D9"/>
<circle cx="817" cy="5" r="5" fill="#D9D9D9"/>
<circle cx="798" cy="5" r="5" fill="#D9D9D9"/>
<circle cx="779" cy="5" r="5" fill="#D9D9D9"/>
<circle cx="779" cy="24" r="5" fill="#D9D9D9"/>
<circle cx="779" cy="43" r="5" fill="#D9D9D9"/>
<circle cx="779" cy="62" r="5" fill="#D9D9D9"/>
<circle cx="817" cy="81" r="5" fill="#D9D9D9"/>
<circle cx="798" cy="62" r="5" fill="#D9D9D9"/>
<circle cx="798" cy="43" r="5" fill="#D9D9D9"/>
<circle cx="817" cy="62" r="5" fill="#D9D9D9"/>
<circle cx="817" cy="43" r="5" fill="#D9D9D9"/>
</g>
<g opacity="0.3">
<circle cx="875" cy="5" r="5" fill="#D9D9D9"/>
<circle cx="887" cy="20" r="5" fill="#D9D9D9"/>
<circle cx="899" cy="35" r="5" fill="#D9D9D9"/>
<circle cx="899" cy="54" r="5" fill="#D9D9D9"/>
<circle cx="899" cy="73" r="5" fill="#D9D9D9"/>
<circle cx="911" cy="20" r="5" fill="#D9D9D9"/>
<circle cx="923" cy="5" r="5" fill="#D9D9D9"/>
<circle cx="987" cy="5" r="5" fill="#D9D9D9"/>
<circle cx="968" cy="5" r="5" fill="#D9D9D9"/>
<circle cx="949" cy="5" r="5" fill="#D9D9D9"/>
<circle cx="949" cy="24" r="5" fill="#D9D9D9"/>
<circle cx="949" cy="43" r="5" fill="#D9D9D9"/>
<circle cx="949" cy="62" r="5" fill="#D9D9D9"/>
<circle cx="987" cy="81" r="5" fill="#D9D9D9"/>
<circle cx="968" cy="62" r="5" fill="#D9D9D9"/>
<circle cx="968" cy="43" r="5" fill="#D9D9D9"/>
<circle cx="987" cy="62" r="5" fill="#D9D9D9"/>
<circle cx="987" cy="43" r="5" fill="#D9D9D9"/>
<circle cx="1061" cy="5" r="5" fill="#D9D9D9"/>
<circle cx="1042" cy="5" r="5" fill="#D9D9D9"/>
<circle cx="1023" cy="5" r="5" fill="#D9D9D9"/>
<circle cx="1023" cy="24" r="5" fill="#D9D9D9"/>
<circle cx="1023" cy="43" r="5" fill="#D9D9D9"/>
<circle cx="1023" cy="62" r="5" fill="#D9D9D9"/>
<circle cx="1061" cy="81" r="5" fill="#D9D9D9"/>
<circle cx="1042" cy="62" r="5" fill="#D9D9D9"/>
<circle cx="1042" cy="43" r="5" fill="#D9D9D9"/>
<circle cx="1061" cy="62" r="5" fill="#D9D9D9"/>
<circle cx="1061" cy="43" r="5" fill="#D9D9D9"/>
</g>
<g opacity="0.3">
<circle cx="1119" cy="5" r="5" fill="#D9D9D9"/>
<circle cx="1131" cy="20" r="5" fill="#D9D9D9"/>
<circle cx="1143" cy="35" r="5" fill="#D9D9D9"/>
<circle cx="1143" cy="54" r="5" fill="#D9D9D9"/>
<circle cx="1143" cy="73" r="5" fill="#D9D9D9"/>
<circle cx="1155" cy="20" r="5" fill="#D9D9D9"/>
<circle cx="1167" cy="5" r="5" fill="#D9D9D9"/>
<circle cx="1231" cy="5" r="5" fill="#D9D9D9"/>
<circle cx="1212" cy="5" r="5" fill="#D9D9D9"/>
<circle cx="1193" cy="5" r="5" fill="#D9D9D9"/>
<circle cx="1193" cy="24" r="5" fill="#D9D9D9"/>
<circle cx="1193" cy="43" r="5" fill="#D9D9D9"/>
<circle cx="1193" cy="62" r="5" fill="#D9D9D9"/>
<circle cx="1231" cy="81" r="5" fill="#D9D9D9"/>
<circle cx="1212" cy="62" r="5" fill="#D9D9D9"/>
<circle cx="1212" cy="43" r="5" fill="#D9D9D9"/>
<circle cx="1231" cy="62" r="5" fill="#D9D9D9"/>
<circle cx="1231" cy="43" r="5" fill="#D9D9D9"/>
<circle cx="1305" cy="5" r="5" fill="#D9D9D9"/>
<circle cx="1286" cy="5" r="5" fill="#D9D9D9"/>
<circle cx="1267" cy="5" r="5" fill="#D9D9D9"/>
<circle cx="1267" cy="24" r="5" fill="#D9D9D9"/>
<circle cx="1267" cy="43" r="5" fill="#D9D9D9"/>
<circle cx="1267" cy="62" r="5" fill="#D9D9D9"/>
<circle cx="1305" cy="81" r="5" fill="#D9D9D9"/>
<circle cx="1286" cy="62" r="5" fill="#D9D9D9"/>
<circle cx="1286" cy="43" r="5" fill="#D9D9D9"/>
<circle cx="1305" cy="62" r="5" fill="#D9D9D9"/>
<circle cx="1305" cy="43" r="5" fill="#D9D9D9"/>
</g>
<g opacity="0.3">
<circle cx="1363" cy="5" r="5" fill="#D9D9D9"/>
<circle cx="1375" cy="20" r="5" fill="#D9D9D9"/>
<circle cx="1387" cy="35" r="5" fill="#D9D9D9"/>
<circle cx="1387" cy="54" r="5" fill="#D9D9D9"/>
<circle cx="1387" cy="73" r="5" fill="#D9D9D9"/>
<circle cx="1399" cy="20" r="5" fill="#D9D9D9"/>
<circle cx="1411" cy="5" r="5" fill="#D9D9D9"/>
<circle cx="1437" cy="5" r="5" fill="#D9D9D9"/>
<circle cx="1437" cy="24" r="5" fill="#D9D9D9"/>
<circle cx="1437" cy="43" r="5" fill="#D9D9D9"/>
<circle cx="1437" cy="62" r="5" fill="#D9D9D9"/>
</g>
<g opacity="0.3">
<circle cx="152" cy="5" r="5" fill="#D9D9D9"/>
<circle cx="164" cy="20" r="5" fill="#D9D9D9"/>
<circle cx="176" cy="35" r="5" fill="#D9D9D9"/>
<circle cx="176" cy="54" r="5" fill="#D9D9D9"/>
<circle cx="176" cy="73" r="5" fill="#D9D9D9"/>
<circle cx="188" cy="20" r="5" fill="#D9D9D9"/>
<circle cx="200" cy="5" r="5" fill="#D9D9D9"/>
<circle cx="264" cy="5" r="5" fill="#D9D9D9"/>
<circle cx="245" cy="5" r="5" fill="#D9D9D9"/>
<circle cx="226" cy="5" r="5" fill="#D9D9D9"/>
<circle cx="226" cy="24" r="5" fill="#D9D9D9"/>
<circle cx="226" cy="43" r="5" fill="#D9D9D9"/>
<circle cx="226" cy="62" r="5" fill="#D9D9D9"/>
<circle cx="264" cy="81" r="5" fill="#D9D9D9"/>
<circle cx="245" cy="62" r="5" fill="#D9D9D9"/>
<circle cx="245" cy="43" r="5" fill="#D9D9D9"/>
<circle cx="264" cy="62" r="5" fill="#D9D9D9"/>
<circle cx="264" cy="43" r="5" fill="#D9D9D9"/>
<circle cx="338" cy="5" r="5" fill="#D9D9D9"/>
<circle cx="319" cy="5" r="5" fill="#D9D9D9"/>
<circle cx="300" cy="5" r="5" fill="#D9D9D9"/>
<circle cx="300" cy="24" r="5" fill="#D9D9D9"/>
<circle cx="300" cy="43" r="5" fill="#D9D9D9"/>
<circle cx="300" cy="62" r="5" fill="#D9D9D9"/>
<circle cx="338" cy="81" r="5" fill="#D9D9D9"/>
<circle cx="319" cy="62" r="5" fill="#D9D9D9"/>
<circle cx="319" cy="43" r="5" fill="#D9D9D9"/>
<circle cx="338" cy="62" r="5" fill="#D9D9D9"/>
<circle cx="338" cy="43" r="5" fill="#D9D9D9"/>
</g>
<g opacity="0.3">
<circle cx="29" cy="5" r="5" fill="#D9D9D9"/>
<circle cx="10" cy="5" r="5" fill="#D9D9D9"/>
<circle cx="29" cy="81" r="5" fill="#D9D9D9"/>
<circle cx="10" cy="62" r="5" fill="#D9D9D9"/>
<circle cx="10" cy="43" r="5" fill="#D9D9D9"/>
<circle cx="29" cy="62" r="5" fill="#D9D9D9"/>
<circle cx="29" cy="43" r="5" fill="#D9D9D9"/>
<circle cx="103" cy="5" r="5" fill="#D9D9D9"/>
<circle cx="84" cy="5" r="5" fill="#D9D9D9"/>
<circle cx="65" cy="5" r="5" fill="#D9D9D9"/>
<circle cx="65" cy="24" r="5" fill="#D9D9D9"/>
<circle cx="65" cy="43" r="5" fill="#D9D9D9"/>
<circle cx="65" cy="62" r="5" fill="#D9D9D9"/>
<circle cx="103" cy="81" r="5" fill="#D9D9D9"/>
<circle cx="84" cy="62" r="5" fill="#D9D9D9"/>
<circle cx="84" cy="43" r="5" fill="#D9D9D9"/>
<circle cx="103" cy="62" r="5" fill="#D9D9D9"/>
<circle cx="103" cy="43" r="5" fill="#D9D9D9"/>
</g>
<g opacity="0.3">
<circle cx="387" cy="128" r="5" fill="#D9D9D9"/>
<circle cx="399" cy="143" r="5" fill="#D9D9D9"/>
<circle cx="411" cy="158" r="5" fill="#D9D9D9"/>
<circle cx="411" cy="177" r="5" fill="#D9D9D9"/>
<circle cx="411" cy="196" r="5" fill="#D9D9D9"/>
<circle cx="423" cy="143" r="5" fill="#D9D9D9"/>
<circle cx="435" cy="128" r="5" fill="#D9D9D9"/>
<circle cx="499" cy="128" r="5" fill="#D9D9D9"/>
<circle cx="480" cy="128" r="5" fill="#D9D9D9"/>
<circle cx="461" cy="128" r="5" fill="#D9D9D9"/>
<circle cx="461" cy="147" r="5" fill="#D9D9D9"/>
<circle cx="461" cy="166" r="5" fill="#D9D9D9"/>
<circle cx="461" cy="185" r="5" fill="#D9D9D9"/>
<circle cx="499" cy="204" r="5" fill="#D9D9D9"/>
<circle cx="480" cy="185" r="5" fill="#D9D9D9"/>
<circle cx="480" cy="166" r="5" fill="#D9D9D9"/>
<circle cx="499" cy="185" r="5" fill="#D9D9D9"/>
<circle cx="499" cy="166" r="5" fill="#D9D9D9"/>
<circle cx="573" cy="128" r="5" fill="#D9D9D9"/>
<circle cx="554" cy="128" r="5" fill="#D9D9D9"/>
<circle cx="535" cy="128" r="5" fill="#D9D9D9"/>
<circle cx="535" cy="147" r="5" fill="#D9D9D9"/>
<circle cx="535" cy="166" r="5" fill="#D9D9D9"/>
<circle cx="535" cy="185" r="5" fill="#D9D9D9"/>
<circle cx="573" cy="204" r="5" fill="#D9D9D9"/>
<circle cx="554" cy="185" r="5" fill="#D9D9D9"/>
<circle cx="554" cy="166" r="5" fill="#D9D9D9"/>
<circle cx="573" cy="185" r="5" fill="#D9D9D9"/>
<circle cx="573" cy="166" r="5" fill="#D9D9D9"/>
</g>
<g opacity="0.3">
<circle cx="631" cy="128" r="5" fill="#D9D9D9"/>
<circle cx="643" cy="143" r="5" fill="#D9D9D9"/>
<circle cx="655" cy="158" r="5" fill="#D9D9D9"/>
<circle cx="655" cy="177" r="5" fill="#D9D9D9"/>
<circle cx="655" cy="196" r="5" fill="#D9D9D9"/>
<circle cx="667" cy="143" r="5" fill="#D9D9D9"/>
<circle cx="679" cy="128" r="5" fill="#D9D9D9"/>
<circle cx="743" cy="128" r="5" fill="#D9D9D9"/>
<circle cx="724" cy="128" r="5" fill="#D9D9D9"/>
<circle cx="705" cy="128" r="5" fill="#D9D9D9"/>
<circle cx="705" cy="147" r="5" fill="#D9D9D9"/>
<circle cx="705" cy="166" r="5" fill="#D9D9D9"/>
<circle cx="705" cy="185" r="5" fill="#D9D9D9"/>
<circle cx="743" cy="204" r="5" fill="#D9D9D9"/>
<circle cx="724" cy="185" r="5" fill="#D9D9D9"/>
<circle cx="724" cy="166" r="5" fill="#D9D9D9"/>
<circle cx="743" cy="185" r="5" fill="#D9D9D9"/>
<circle cx="743" cy="166" r="5" fill="#D9D9D9"/>
<circle cx="817" cy="128" r="5" fill="#D9D9D9"/>
<circle cx="798" cy="128" r="5" fill="#D9D9D9"/>
<circle cx="779" cy="128" r="5" fill="#D9D9D9"/>
<circle cx="779" cy="147" r="5" fill="#D9D9D9"/>
<circle cx="779" cy="166" r="5" fill="#D9D9D9"/>
<circle cx="779" cy="185" r="5" fill="#D9D9D9"/>
<circle cx="817" cy="204" r="5" fill="#D9D9D9"/>
<circle cx="798" cy="185" r="5" fill="#D9D9D9"/>
<circle cx="798" cy="166" r="5" fill="#D9D9D9"/>
<circle cx="817" cy="185" r="5" fill="#D9D9D9"/>
<circle cx="817" cy="166" r="5" fill="#D9D9D9"/>
</g>
<g opacity="0.3">
<circle cx="875" cy="128" r="5" fill="#D9D9D9"/>
<circle cx="887" cy="143" r="5" fill="#D9D9D9"/>
<circle cx="899" cy="158" r="5" fill="#D9D9D9"/>
<circle cx="899" cy="177" r="5" fill="#D9D9D9"/>
<circle cx="899" cy="196" r="5" fill="#D9D9D9"/>
<circle cx="911" cy="143" r="5" fill="#D9D9D9"/>
<circle cx="923" cy="128" r="5" fill="#D9D9D9"/>
<circle cx="987" cy="128" r="5" fill="#D9D9D9"/>
<circle cx="968" cy="128" r="5" fill="#D9D9D9"/>
<circle cx="949" cy="128" r="5" fill="#D9D9D9"/>
<circle cx="949" cy="147" r="5" fill="#D9D9D9"/>
<circle cx="949" cy="166" r="5" fill="#D9D9D9"/>
<circle cx="949" cy="185" r="5" fill="#D9D9D9"/>
<circle cx="987" cy="204" r="5" fill="#D9D9D9"/>
<circle cx="968" cy="185" r="5" fill="#D9D9D9"/>
<circle cx="968" cy="166" r="5" fill="#D9D9D9"/>
<circle cx="987" cy="185" r="5" fill="#D9D9D9"/>
<circle cx="987" cy="166" r="5" fill="#D9D9D9"/>
<circle cx="1061" cy="128" r="5" fill="#D9D9D9"/>
<circle cx="1042" cy="128" r="5" fill="#D9D9D9"/>
<circle cx="1023" cy="128" r="5" fill="#D9D9D9"/>
<circle cx="1023" cy="147" r="5" fill="#D9D9D9"/>
<circle cx="1023" cy="166" r="5" fill="#D9D9D9"/>
<circle cx="1023" cy="185" r="5" fill="#D9D9D9"/>
<circle cx="1061" cy="204" r="5" fill="#D9D9D9"/>
<circle cx="1042" cy="185" r="5" fill="#D9D9D9"/>
<circle cx="1042" cy="166" r="5" fill="#D9D9D9"/>
<circle cx="1061" cy="185" r="5" fill="#D9D9D9"/>
<circle cx="1061" cy="166" r="5" fill="#D9D9D9"/>
</g>
<g opacity="0.3">
<circle cx="1119" cy="128" r="5" fill="#D9D9D9"/>
<circle cx="1131" cy="143" r="5" fill="#D9D9D9"/>
<circle cx="1143" cy="158" r="5" fill="#D9D9D9"/>
<circle cx="1143" cy="177" r="5" fill="#D9D9D9"/>
<circle cx="1143" cy="196" r="5" fill="#D9D9D9"/>
<circle cx="1155" cy="143" r="5" fill="#D9D9D9"/>
<circle cx="1167" cy="128" r="5" fill="#D9D9D9"/>
<circle cx="1231" cy="128" r="5" fill="#D9D9D9"/>
<circle cx="1212" cy="128" r="5" fill="#D9D9D9"/>
<circle cx="1193" cy="128" r="5" fill="#D9D9D9"/>
<circle cx="1193" cy="147" r="5" fill="#D9D9D9"/>
<circle cx="1193" cy="166" r="5" fill="#D9D9D9"/>
<circle cx="1193" cy="185" r="5" fill="#D9D9D9"/>
<circle cx="1231" cy="204" r="5" fill="#D9D9D9"/>
<circle cx="1212" cy="185" r="5" fill="#D9D9D9"/>
<circle cx="1212" cy="166" r="5" fill="#D9D9D9"/>
<circle cx="1231" cy="185" r="5" fill="#D9D9D9"/>
<circle cx="1231" cy="166" r="5" fill="#D9D9D9"/>
<circle cx="1305" cy="128" r="5" fill="#D9D9D9"/>
<circle cx="1286" cy="128" r="5" fill="#D9D9D9"/>
<circle cx="1267" cy="128" r="5" fill="#D9D9D9"/>
<circle cx="1267" cy="147" r="5" fill="#D9D9D9"/>
<circle cx="1267" cy="166" r="5" fill="#D9D9D9"/>
<circle cx="1267" cy="185" r="5" fill="#D9D9D9"/>
<circle cx="1305" cy="204" r="5" fill="#D9D9D9"/>
<circle cx="1286" cy="185" r="5" fill="#D9D9D9"/>
<circle cx="1286" cy="166" r="5" fill="#D9D9D9"/>
<circle cx="1305" cy="185" r="5" fill="#D9D9D9"/>
<circle cx="1305" cy="166" r="5" fill="#D9D9D9"/>
</g>
<g opacity="0.3">
<circle cx="1363" cy="128" r="5" fill="#D9D9D9"/>
<circle cx="1375" cy="143" r="5" fill="#D9D9D9"/>
<circle cx="1387" cy="158" r="5" fill="#D9D9D9"/>
<circle cx="1387" cy="177" r="5" fill="#D9D9D9"/>
<circle cx="1387" cy="196" r="5" fill="#D9D9D9"/>
<circle cx="1399" cy="143" r="5" fill="#D9D9D9"/>
<circle cx="1411" cy="128" r="5" fill="#D9D9D9"/>
<circle cx="1437" cy="128" r="5" fill="#D9D9D9"/>
<circle cx="1437" cy="147" r="5" fill="#D9D9D9"/>
<circle cx="1437" cy="166" r="5" fill="#D9D9D9"/>
<circle cx="1437" cy="185" r="5" fill="#D9D9D9"/>
</g>
<g opacity="0.3">
<circle cx="152" cy="128" r="5" fill="#D9D9D9"/>
<circle cx="164" cy="143" r="5" fill="#D9D9D9"/>
<circle cx="176" cy="158" r="5" fill="#D9D9D9"/>
<circle cx="176" cy="177" r="5" fill="#D9D9D9"/>
<circle cx="176" cy="196" r="5" fill="#D9D9D9"/>
<circle cx="188" cy="143" r="5" fill="#D9D9D9"/>
<circle cx="200" cy="128" r="5" fill="#D9D9D9"/>
<circle cx="264" cy="128" r="5" fill="#D9D9D9"/>
<circle cx="245" cy="128" r="5" fill="#D9D9D9"/>
<circle cx="226" cy="128" r="5" fill="#D9D9D9"/>
<circle cx="226" cy="147" r="5" fill="#D9D9D9"/>
<circle cx="226" cy="166" r="5" fill="#D9D9D9"/>
<circle cx="226" cy="185" r="5" fill="#D9D9D9"/>
<circle cx="264" cy="204" r="5" fill="#D9D9D9"/>
<circle cx="245" cy="185" r="5" fill="#D9D9D9"/>
<circle cx="245" cy="166" r="5" fill="#D9D9D9"/>
<circle cx="264" cy="185" r="5" fill="#D9D9D9"/>
<circle cx="264" cy="166" r="5" fill="#D9D9D9"/>
<circle cx="338" cy="128" r="5" fill="#D9D9D9"/>
<circle cx="319" cy="128" r="5" fill="#D9D9D9"/>
<circle cx="300" cy="128" r="5" fill="#D9D9D9"/>
<circle cx="300" cy="147" r="5" fill="#D9D9D9"/>
<circle cx="300" cy="166" r="5" fill="#D9D9D9"/>
<circle cx="300" cy="185" r="5" fill="#D9D9D9"/>
<circle cx="338" cy="204" r="5" fill="#D9D9D9"/>
<circle cx="319" cy="185" r="5" fill="#D9D9D9"/>
<circle cx="319" cy="166" r="5" fill="#D9D9D9"/>
<circle cx="338" cy="185" r="5" fill="#D9D9D9"/>
<circle cx="338" cy="166" r="5" fill="#D9D9D9"/>
</g>
<g opacity="0.3">
<circle cx="29" cy="128" r="5" fill="#D9D9D9"/>
<circle cx="10" cy="128" r="5" fill="#D9D9D9"/>
<circle cx="29" cy="204" r="5" fill="#D9D9D9"/>
<circle cx="10" cy="185" r="5" fill="#D9D9D9"/>
<circle cx="10" cy="166" r="5" fill="#D9D9D9"/>
<circle cx="29" cy="185" r="5" fill="#D9D9D9"/>
<circle cx="29" cy="166" r="5" fill="#D9D9D9"/>
<circle cx="103" cy="128" r="5" fill="#D9D9D9"/>
<circle cx="84" cy="128" r="5" fill="#D9D9D9"/>
<circle cx="65" cy="128" r="5" fill="#D9D9D9"/>
<circle cx="65" cy="147" r="5" fill="#D9D9D9"/>
<circle cx="65" cy="166" r="5" fill="#D9D9D9"/>
<circle cx="65" cy="185" r="5" fill="#D9D9D9"/>
<circle cx="103" cy="204" r="5" fill="#D9D9D9"/>
<circle cx="84" cy="185" r="5" fill="#D9D9D9"/>
<circle cx="84" cy="166" r="5" fill="#D9D9D9"/>
<circle cx="103" cy="185" r="5" fill="#D9D9D9"/>
<circle cx="103" cy="166" r="5" fill="#D9D9D9"/>
</g>
<circle cx="387" cy="252" r="5" fill="#D9D9D9" fill-opacity="0.3"/>
<circle cx="399" cy="267" r="5" fill="#D9D9D9" fill-opacity="0.3"/>
<circle cx="411" cy="282" r="5" fill="#D9D9D9" fill-opacity="0.3"/>
<circle cx="411" cy="301" r="5" fill="#D9D9D9" fill-opacity="0.3"/>
<circle cx="411" cy="320" r="5" fill="#D9D9D9" fill-opacity="0.3"/>
<circle cx="423" cy="267" r="5" fill="#D9D9D9" fill-opacity="0.3"/>
<circle cx="435" cy="252" r="5" fill="#D9D9D9" fill-opacity="0.3"/>
<circle cx="499" cy="252" r="5" fill="#D9D9D9" fill-opacity="0.3"/>
<circle cx="480" cy="252" r="5" fill="#D9D9D9" fill-opacity="0.3"/>
<circle cx="461" cy="252" r="5" fill="#D9D9D9" fill-opacity="0.3"/>
<circle cx="461" cy="271" r="5" fill="#D9D9D9" fill-opacity="0.3"/>
<circle cx="461" cy="290" r="5" fill="#D9D9D9" fill-opacity="0.3"/>
<circle cx="461" cy="309" r="5" fill="#D9D9D9" fill-opacity="0.3"/>
<circle cx="499" cy="328" r="5" fill="#D9D9D9" fill-opacity="0.3"/>
<circle cx="480" cy="309" r="5" fill="#D9D9D9" fill-opacity="0.3"/>
<circle cx="480" cy="290" r="5" fill="#D9D9D9" fill-opacity="0.3"/>
<circle cx="499" cy="309" r="5" fill="#D9D9D9" fill-opacity="0.3"/>
<circle cx="499" cy="290" r="5" fill="#D9D9D9" fill-opacity="0.3"/>
<circle cx="573" cy="252" r="5" fill="#D9D9D9" fill-opacity="0.3"/>
<circle cx="554" cy="252" r="5" fill="#D9D9D9" fill-opacity="0.3"/>
<circle cx="535" cy="252" r="5" fill="#D9D9D9" fill-opacity="0.3"/>
<circle cx="535" cy="271" r="5" fill="#D9D9D9" fill-opacity="0.3"/>
<circle cx="535" cy="290" r="5" fill="#D9D9D9" fill-opacity="0.3"/>
<circle cx="535" cy="309" r="5" fill="#D9D9D9" fill-opacity="0.3"/>
<circle cx="573" cy="328" r="5" fill="#D9D9D9" fill-opacity="0.3"/>
<circle cx="554" cy="309" r="5" fill="#D9D9D9" fill-opacity="0.3"/>
<circle cx="554" cy="290" r="5" fill="#D9D9D9" fill-opacity="0.3"/>
<circle cx="573" cy="309" r="5" fill="#D9D9D9" fill-opacity="0.3"/>
<circle cx="573" cy="290" r="5" fill="#D9D9D9" fill-opacity="0.3"/>
<circle cx="631" cy="252" r="5" fill="#D9D9D9" fill-opacity="0.3"/>
<circle cx="643" cy="267" r="5" fill="#D9D9D9" fill-opacity="0.3"/>
<circle cx="655" cy="282" r="5" fill="#D9D9D9" fill-opacity="0.3"/>
<circle cx="655" cy="301" r="5" fill="#D9D9D9" fill-opacity="0.3"/>
<circle cx="655" cy="320" r="5" fill="#D9D9D9" fill-opacity="0.3"/>
<circle cx="667" cy="267" r="5" fill="#D9D9D9" fill-opacity="0.3"/>
<circle cx="679" cy="252" r="5" fill="#D9D9D9" fill-opacity="0.3"/>
<circle cx="743" cy="252" r="5" fill="#D9D9D9" fill-opacity="0.3"/>
<circle cx="724" cy="252" r="5" fill="#D9D9D9" fill-opacity="0.3"/>
<circle cx="705" cy="252" r="5" fill="#D9D9D9" fill-opacity="0.3"/>
<circle cx="705" cy="271" r="5" fill="#D9D9D9" fill-opacity="0.3"/>
<circle cx="705" cy="290" r="5" fill="#D9D9D9" fill-opacity="0.3"/>
<circle cx="705" cy="309" r="5" fill="#D9D9D9" fill-opacity="0.3"/>
<circle cx="743" cy="328" r="5" fill="#D9D9D9" fill-opacity="0.3"/>
<circle cx="724" cy="309" r="5" fill="#D9D9D9" fill-opacity="0.3"/>
<circle cx="724" cy="290" r="5" fill="#D9D9D9" fill-opacity="0.3"/>
<circle cx="743" cy="309" r="5" fill="#D9D9D9" fill-opacity="0.3"/>
<circle cx="743" cy="290" r="5" fill="#D9D9D9" fill-opacity="0.3"/>
<circle cx="817" cy="252" r="5" fill="#D9D9D9" fill-opacity="0.3"/>
<circle cx="798" cy="252" r="5" fill="#D9D9D9" fill-opacity="0.3"/>
<circle cx="779" cy="252" r="5" fill="#D9D9D9" fill-opacity="0.3"/>
<circle cx="779" cy="271" r="5" fill="#D9D9D9" fill-opacity="0.3"/>
<circle cx="779" cy="290" r="5" fill="#D9D9D9" fill-opacity="0.3"/>
<circle cx="779" cy="309" r="5" fill="#D9D9D9" fill-opacity="0.3"/>
<circle cx="817" cy="328" r="5" fill="#D9D9D9" fill-opacity="0.3"/>
<circle cx="798" cy="309" r="5" fill="#D9D9D9" fill-opacity="0.3"/>
<circle cx="798" cy="290" r="5" fill="#D9D9D9" fill-opacity="0.3"/>
<circle cx="817" cy="309" r="5" fill="#D9D9D9" fill-opacity="0.3"/>
<circle cx="817" cy="290" r="5" fill="#D9D9D9" fill-opacity="0.3"/>
<circle cx="875" cy="252" r="5" fill="#D9D9D9" fill-opacity="0.3"/>
<circle cx="887" cy="267" r="5" fill="#D9D9D9" fill-opacity="0.3"/>
<circle cx="899" cy="282" r="5" fill="#D9D9D9" fill-opacity="0.3"/>
<circle cx="899" cy="301" r="5" fill="#D9D9D9" fill-opacity="0.3"/>
<circle cx="899" cy="320" r="5" fill="#D9D9D9" fill-opacity="0.3"/>
<circle cx="911" cy="267" r="5" fill="#D9D9D9" fill-opacity="0.3"/>
<circle cx="923" cy="252" r="5" fill="#D9D9D9" fill-opacity="0.3"/>
<circle cx="987" cy="252" r="5" fill="#D9D9D9" fill-opacity="0.3"/>
<circle cx="968" cy="252" r="5" fill="#D9D9D9" fill-opacity="0.3"/>
<circle cx="949" cy="252" r="5" fill="#D9D9D9" fill-opacity="0.3"/>
<circle cx="949" cy="271" r="5" fill="#D9D9D9" fill-opacity="0.3"/>
<circle cx="949" cy="290" r="5" fill="#D9D9D9" fill-opacity="0.3"/>
<circle cx="949" cy="309" r="5" fill="#D9D9D9" fill-opacity="0.3"/>
<circle cx="987" cy="328" r="5" fill="#D9D9D9" fill-opacity="0.3"/>
<circle cx="968" cy="309" r="5" fill="#D9D9D9" fill-opacity="0.3"/>
<circle cx="968" cy="290" r="5" fill="#D9D9D9" fill-opacity="0.3"/>
<circle cx="987" cy="309" r="5" fill="#D9D9D9" fill-opacity="0.3"/>
<circle cx="987" cy="290" r="5" fill="#D9D9D9" fill-opacity="0.3"/>
<circle cx="1061" cy="252" r="5" fill="#D9D9D9" fill-opacity="0.3"/>
<circle cx="1042" cy="252" r="5" fill="#D9D9D9" fill-opacity="0.3"/>
<circle cx="1023" cy="252" r="5" fill="#D9D9D9" fill-opacity="0.3"/>
<circle cx="1023" cy="271" r="5" fill="#D9D9D9" fill-opacity="0.3"/>
<circle cx="1023" cy="290" r="5" fill="#D9D9D9" fill-opacity="0.3"/>
<circle cx="1023" cy="309" r="5" fill="#D9D9D9" fill-opacity="0.3"/>
<circle cx="1061" cy="328" r="5" fill="#D9D9D9" fill-opacity="0.3"/>
<circle cx="1042" cy="309" r="5" fill="#D9D9D9" fill-opacity="0.3"/>
<circle cx="1042" cy="290" r="5" fill="#D9D9D9" fill-opacity="0.3"/>
<circle cx="1061" cy="309" r="5" fill="#D9D9D9" fill-opacity="0.3"/>
<circle cx="1061" cy="290" r="5" fill="#D9D9D9" fill-opacity="0.3"/>
<circle cx="1119" cy="252" r="5" fill="#D9D9D9" fill-opacity="0.3"/>
<circle cx="1131" cy="267" r="5" fill="#D9D9D9" fill-opacity="0.3"/>
<circle cx="1143" cy="282" r="5" fill="#D9D9D9" fill-opacity="0.3"/>
<circle cx="1143" cy="301" r="5" fill="#D9D9D9" fill-opacity="0.3"/>
<circle cx="1143" cy="320" r="5" fill="#D9D9D9" fill-opacity="0.3"/>
<circle cx="1155" cy="267" r="5" fill="#D9D9D9" fill-opacity="0.3"/>
<circle cx="1167" cy="252" r="5" fill="#D9D9D9" fill-opacity="0.3"/>
<circle cx="1231" cy="252" r="5" fill="#D9D9D9" fill-opacity="0.3"/>
<circle cx="1212" cy="252" r="5" fill="#D9D9D9" fill-opacity="0.3"/>
<circle cx="1193" cy="252" r="5" fill="#D9D9D9" fill-opacity="0.3"/>
<circle cx="1193" cy="271" r="5" fill="#D9D9D9" fill-opacity="0.3"/>
<circle cx="1193" cy="290" r="5" fill="#D9D9D9" fill-opacity="0.3"/>
<circle cx="1193" cy="309" r="5" fill="#D9D9D9" fill-opacity="0.3"/>
<circle cx="1231" cy="328" r="5" fill="#D9D9D9" fill-opacity="0.3"/>
<circle cx="1212" cy="309" r="5" fill="#D9D9D9" fill-opacity="0.3"/>
<circle cx="1212" cy="290" r="5" fill="#D9D9D9" fill-opacity="0.3"/>
<circle cx="1231" cy="309" r="5" fill="#D9D9D9" fill-opacity="0.3"/>
<circle cx="1231" cy="290" r="5" fill="#D9D9D9" fill-opacity="0.3"/>
<circle cx="1305" cy="252" r="5" fill="#D9D9D9" fill-opacity="0.3"/>
<circle cx="1286" cy="252" r="5" fill="#D9D9D9" fill-opacity="0.3"/>
<circle cx="1267" cy="252" r="5" fill="#D9D9D9" fill-opacity="0.3"/>
<circle cx="1267" cy="271" r="5" fill="#D9D9D9" fill-opacity="0.3"/>
<circle cx="1267" cy="290" r="5" fill="#D9D9D9" fill-opacity="0.3"/>
<circle cx="1267" cy="309" r="5" fill="#D9D9D9" fill-opacity="0.3"/>
<circle cx="1305" cy="328" r="5" fill="#D9D9D9" fill-opacity="0.3"/>
<circle cx="1286" cy="309" r="5" fill="#D9D9D9" fill-opacity="0.3"/>
<circle cx="1286" cy="290" r="5" fill="#D9D9D9" fill-opacity="0.3"/>
<circle cx="1305" cy="309" r="5" fill="#D9D9D9" fill-opacity="0.3"/>
<circle cx="1305" cy="290" r="5" fill="#D9D9D9" fill-opacity="0.3"/>
<circle cx="1363" cy="252" r="5" fill="#D9D9D9" fill-opacity="0.3"/>
<circle cx="1375" cy="267" r="5" fill="#D9D9D9" fill-opacity="0.3"/>
<circle cx="1387" cy="282" r="5" fill="#D9D9D9" fill-opacity="0.3"/>
<circle cx="1387" cy="301" r="5" fill="#D9D9D9" fill-opacity="0.3"/>
<circle cx="1387" cy="320" r="5" fill="#D9D9D9" fill-opacity="0.3"/>
<circle cx="1399" cy="267" r="5" fill="#D9D9D9" fill-opacity="0.3"/>
<circle cx="1411" cy="252" r="5" fill="#D9D9D9" fill-opacity="0.3"/>
<circle cx="1437" cy="252" r="5" fill="#D9D9D9" fill-opacity="0.3"/>
<circle cx="1437" cy="271" r="5" fill="#D9D9D9" fill-opacity="0.3"/>
<circle cx="1437" cy="290" r="5" fill="#D9D9D9" fill-opacity="0.3"/>
<circle cx="1437" cy="309" r="5" fill="#D9D9D9" fill-opacity="0.3"/>
<circle cx="152" cy="252" r="5" fill="#D9D9D9" fill-opacity="0.3"/>
<circle cx="164" cy="267" r="5" fill="#D9D9D9" fill-opacity="0.3"/>
<circle cx="176" cy="282" r="5" fill="#D9D9D9" fill-opacity="0.3"/>
<circle cx="176" cy="301" r="5" fill="#D9D9D9" fill-opacity="0.3"/>
<circle cx="176" cy="320" r="5" fill="#D9D9D9" fill-opacity="0.3"/>
<circle cx="188" cy="267" r="5" fill="#D9D9D9" fill-opacity="0.3"/>
<circle cx="200" cy="252" r="5" fill="#D9D9D9" fill-opacity="0.3"/>
<circle cx="264" cy="252" r="5" fill="#D9D9D9" fill-opacity="0.3"/>
<circle cx="245" cy="252" r="5" fill="#D9D9D9" fill-opacity="0.3"/>
<circle cx="226" cy="252" r="5" fill="#D9D9D9" fill-opacity="0.3"/>
<circle cx="226" cy="271" r="5" fill="#D9D9D9" fill-opacity="0.3"/>
<circle cx="226" cy="290" r="5" fill="#D9D9D9" fill-opacity="0.3"/>
<circle cx="226" cy="309" r="5" fill="#D9D9D9" fill-opacity="0.3"/>
<circle cx="264" cy="328" r="5" fill="#D9D9D9" fill-opacity="0.3"/>
<circle cx="245" cy="309" r="5" fill="#D9D9D9" fill-opacity="0.3"/>
<circle cx="245" cy="290" r="5" fill="#D9D9D9" fill-opacity="0.3"/>
<circle cx="264" cy="309" r="5" fill="#D9D9D9" fill-opacity="0.3"/>
<circle cx="264" cy="290" r="5" fill="#D9D9D9" fill-opacity="0.3"/>
<circle cx="338" cy="252" r="5" fill="#D9D9D9" fill-opacity="0.3"/>
<circle cx="319" cy="252" r="5" fill="#D9D9D9" fill-opacity="0.3"/>
<circle cx="300" cy="252" r="5" fill="#D9D9D9" fill-opacity="0.3"/>
<circle cx="300" cy="271" r="5" fill="#D9D9D9" fill-opacity="0.3"/>
<circle cx="300" cy="290" r="5" fill="#D9D9D9" fill-opacity="0.3"/>
<circle cx="300" cy="309" r="5" fill="#D9D9D9" fill-opacity="0.3"/>
<circle cx="338" cy="328" r="5" fill="#D9D9D9" fill-opacity="0.3"/>
<circle cx="319" cy="309" r="5" fill="#D9D9D9" fill-opacity="0.3"/>
<circle cx="319" cy="290" r="5" fill="#D9D9D9" fill-opacity="0.3"/>
<circle cx="338" cy="309" r="5" fill="#D9D9D9" fill-opacity="0.3"/>
<circle cx="338" cy="290" r="5" fill="#D9D9D9" fill-opacity="0.3"/>
<circle cx="24" cy="252" r="5" fill="#D9D9D9" fill-opacity="0.3"/>
<circle cx="5" cy="252" r="5" fill="#D9D9D9" fill-opacity="0.3"/>
<circle cx="24" cy="328" r="5" fill="#D9D9D9" fill-opacity="0.3"/>
<circle cx="5" cy="309" r="5" fill="#D9D9D9" fill-opacity="0.3"/>
<circle cx="5" cy="290" r="5" fill="#D9D9D9" fill-opacity="0.3"/>
<circle cx="24" cy="309" r="5" fill="#D9D9D9" fill-opacity="0.3"/>
<circle cx="24" cy="290" r="5" fill="#D9D9D9" fill-opacity="0.3"/>
<circle cx="98" cy="252" r="5" fill="#D9D9D9" fill-opacity="0.3"/>
<circle cx="79" cy="252" r="5" fill="#D9D9D9" fill-opacity="0.3"/>
<circle cx="60" cy="252" r="5" fill="#D9D9D9" fill-opacity="0.3"/>
<circle cx="60" cy="271" r="5" fill="#D9D9D9" fill-opacity="0.3"/>
<circle cx="60" cy="290" r="5" fill="#D9D9D9" fill-opacity="0.3"/>
<circle cx="60" cy="309" r="5" fill="#D9D9D9" fill-opacity="0.3"/>
<circle cx="98" cy="328" r="5" fill="#D9D9D9" fill-opacity="0.3"/>
<circle cx="79" cy="309" r="5" fill="#D9D9D9" fill-opacity="0.3"/>
<circle cx="79" cy="290" r="5" fill="#D9D9D9" fill-opacity="0.3"/>
<circle cx="98" cy="309" r="5" fill="#D9D9D9" fill-opacity="0.3"/>
<circle cx="98" cy="290" r="5" fill="#D9D9D9" fill-opacity="0.3"/>
</g>
</svg>
