<svg width="44" height="27" viewBox="0 0 44 27" fill="none" xmlns="http://www.w3.org/2000/svg">
<path d="M19.325 5.3501H8.62498C6.49661 5.3501 4.45542 6.19559 2.95044 7.70057C1.44546 9.20555 0.599976 11.2467 0.599976 13.3751C0.599976 15.5035 1.44546 17.5447 2.95044 19.0496C4.45542 20.5546 6.49661 21.4001 8.62498 21.4001H19.325C18.7023 20.572 18.178 19.6743 17.7628 18.7251H8.62498C7.20607 18.7251 5.84527 18.1614 4.84195 17.1581C3.83863 16.1548 3.27498 14.794 3.27498 13.3751C3.27498 11.9562 3.83863 10.5954 4.84195 9.59208C5.84527 8.58876 7.20607 8.0251 8.62498 8.0251H17.7628C18.1801 7.07012 18.7044 6.174 19.325 5.3501Z" fill="#4ECB71"/>
<path d="M43.4 13.375C43.4 16.9223 41.9909 20.3243 39.4826 22.8326C36.9743 25.3409 33.5723 26.75 30.025 26.75C26.4778 26.75 23.0758 25.3409 20.5675 22.8326C18.0592 20.3243 16.65 16.9223 16.65 13.375C16.65 9.82773 18.0592 6.42575 20.5675 3.91745C23.0758 1.40915 26.4778 0 30.025 0C33.5723 0 36.9743 1.40915 39.4826 3.91745C41.9909 6.42575 43.4 9.82773 43.4 13.375Z" fill="#4ECB71"/>
</svg>
