<svg width="26" height="25" viewBox="0 0 26 25" fill="none" xmlns="http://www.w3.org/2000/svg">
<path d="M11.1873 21.3812C13.5594 21.3807 15.8631 20.5867 17.7316 19.1255L23.6064 25L25.4961 23.1104L19.6213 17.2359C21.0833 15.3673 21.8779 13.0632 21.8785 10.6906C21.8785 4.79608 17.0821 0 11.1873 0C5.29243 0 0.496094 4.79608 0.496094 10.6906C0.496094 16.5852 5.29243 21.3812 11.1873 21.3812ZM11.1873 2.67265C15.6094 2.67265 19.2057 6.26871 19.2057 10.6906C19.2057 15.1125 15.6094 18.7086 11.1873 18.7086C6.76514 18.7086 3.16889 15.1125 3.16889 10.6906C3.16889 6.26871 6.76514 2.67265 11.1873 2.67265Z" fill="white"/>
</svg>
