<svg width="31" height="35" viewBox="0 0 31 35" fill="none" xmlns="http://www.w3.org/2000/svg">
<path d="M15.4961 22.1053C19.0532 22.1053 21.9032 19.6368 21.9032 16.5789L21.9247 5.52632C21.9247 2.46842 19.0532 0 15.4961 0C11.939 0 9.06752 2.46842 9.06752 5.52632V16.5789C9.06752 19.6368 11.939 22.1053 15.4961 22.1053ZM26.8532 16.5789C26.8532 22.1053 21.4104 25.9737 15.4961 25.9737C9.58181 25.9737 4.13895 22.1053 4.13895 16.5789H0.496094C0.496094 22.8789 6.32467 28.0553 13.3532 28.9579V35H17.639V28.9579C24.6675 28.0737 30.4961 22.8789 30.4961 16.5789H26.8532Z" fill="#257EBF"/>
</svg>
