<svg width="141" height="26" viewBox="0 0 141 26" fill="none" xmlns="http://www.w3.org/2000/svg">
<path d="M31.4 0.299999H51.274V1.934H48.766L32.084 13.942V19.262C32.084 20.6807 32.464 21.7193 33.224 22.378C33.984 23.0367 34.9847 23.366 36.226 23.366H40.824V25H8.486V23.366H13.122C14.3633 23.366 15.3513 23.0367 16.086 22.378C16.846 21.7193 17.226 20.6807 17.226 19.262V14.74L4.306 1.934H0.468V0.299999H28.93V1.934H27.866C27.3087 1.934 26.8653 2.09866 26.536 2.428C26.2067 2.75733 26.042 3.17533 26.042 3.682C26.042 4.54333 26.422 5.34133 27.182 6.076L32.084 10.94L34.326 9.116C36.15 7.64667 37.062 6.17733 37.062 4.708C37.062 3.89733 36.7327 3.23867 36.074 2.732C35.4153 2.2 34.4907 1.934 33.3 1.934H31.4V0.299999ZM19.81 23.366H22.28V13.372L10.69 1.934H7.688L19.81 13.904V23.366ZM70.3346 12.308H96.3646V13.904H90.2086V25.152H88.4986C88.4986 24.544 88.3086 24.05 87.9286 23.67C87.5486 23.29 87.0292 23.1 86.3706 23.1C85.7372 23.1 84.7872 23.328 83.5206 23.784C79.7206 25.152 75.9079 25.836 72.0826 25.836C68.2572 25.836 64.8246 25.456 61.7846 24.696C58.7446 23.9107 56.2746 22.6187 54.3746 20.82C52.4999 18.996 51.5626 16.7287 51.5626 14.018C51.5626 11.8647 52.0819 10.0407 53.1206 8.546C54.1592 7.05133 55.6412 5.91133 57.5666 5.126C61.0626 3.682 65.4832 2.96 70.8286 2.96C76.1739 2.96 81.1266 3.63133 85.6866 4.974V3.606H87.4726V10.598H85.7626C84.8506 9.28067 83.1279 7.938 80.5946 6.57C78.0866 5.17667 75.7052 4.48 73.4506 4.48C68.7132 4.48 66.3446 6.05067 66.3446 9.192V18.35C66.3446 21.1873 67.3706 22.9987 69.4226 23.784C70.2586 24.088 71.1326 24.24 72.0446 24.24C72.9566 24.24 73.6786 24.1767 74.2106 24.05C74.7426 23.9233 75.2872 23.6953 75.8446 23.366C76.4019 23.0367 76.8452 22.53 77.1746 21.846C77.5292 21.162 77.7066 20.3387 77.7066 19.376V17.058C77.7066 16.1967 77.3392 15.462 76.6046 14.854C75.8699 14.2207 75.0466 13.904 74.1346 13.904H70.3346V12.308ZM82.0006 18.084V13.942H80.0626V20.212C80.0626 21.8333 80.2019 22.644 80.4806 22.644C80.8352 22.644 81.1772 22.188 81.5066 21.276C81.8359 20.364 82.0006 19.3 82.0006 18.084ZM60.0366 22.416C58.7446 21.504 57.7439 20.3133 57.0346 18.844C56.3506 17.3493 56.0086 15.766 56.0086 14.094C56.0086 12.3967 56.3506 10.8133 57.0346 9.344C57.7439 7.84933 58.7446 6.646 60.0366 5.734L59.9226 5.544C58.0732 6.38 56.5912 7.50733 55.4766 8.926C54.3619 10.3447 53.8046 12.0673 53.8046 14.094C53.8046 16.0953 54.3619 17.8053 55.4766 19.224C56.5912 20.6427 58.0732 21.77 59.9226 22.606L60.0366 22.416ZM114.754 12.308H140.784V13.904H134.628V25.152H132.918C132.918 24.544 132.728 24.05 132.348 23.67C131.968 23.29 131.449 23.1 130.79 23.1C130.157 23.1 129.207 23.328 127.94 23.784C124.14 25.152 120.328 25.836 116.502 25.836C112.677 25.836 109.244 25.456 106.204 24.696C103.164 23.9107 100.694 22.6187 98.7945 20.82C96.9198 18.996 95.9825 16.7287 95.9825 14.018C95.9825 11.8647 96.5018 10.0407 97.5405 8.546C98.5792 7.05133 100.061 5.91133 101.986 5.126C105.482 3.682 109.903 2.96 115.248 2.96C120.594 2.96 125.546 3.63133 130.106 4.974V3.606H131.892V10.598H130.182C129.27 9.28067 127.548 7.938 125.014 6.57C122.506 5.17667 120.125 4.48 117.87 4.48C113.133 4.48 110.764 6.05067 110.764 9.192V18.35C110.764 21.1873 111.79 22.9987 113.842 23.784C114.678 24.088 115.552 24.24 116.464 24.24C117.376 24.24 118.098 24.1767 118.63 24.05C119.162 23.9233 119.707 23.6953 120.264 23.366C120.822 23.0367 121.265 22.53 121.594 21.846C121.949 21.162 122.126 20.3387 122.126 19.376V17.058C122.126 16.1967 121.759 15.462 121.024 14.854C120.29 14.2207 119.466 13.904 118.554 13.904H114.754V12.308ZM126.42 18.084V13.942H124.482V20.212C124.482 21.8333 124.622 22.644 124.9 22.644C125.255 22.644 125.597 22.188 125.926 21.276C126.256 20.364 126.42 19.3 126.42 18.084ZM104.456 22.416C103.164 21.504 102.164 20.3133 101.454 18.844C100.77 17.3493 100.428 15.766 100.428 14.094C100.428 12.3967 100.77 10.8133 101.454 9.344C102.164 7.84933 103.164 6.646 104.456 5.734L104.342 5.544C102.493 6.38 101.011 7.50733 99.8965 8.926C98.7818 10.3447 98.2245 12.0673 98.2245 14.094C98.2245 16.0953 98.7818 17.8053 99.8965 19.224C101.011 20.6427 102.493 21.77 104.342 22.606L104.456 22.416Z" fill="#484949"/>
</svg>
